<svg xmlns="http://www.w3.org/2000/svg" data-attach="0.8,-2" viewBox="-50 -50 100 100"><path fill="var(--primary)" d="M45.49 19.38a20.7 20.7 0 1 1-41.41 0 20.7 20.7 0 0 1 41.41 0"/><path fill="var(--primary)" d="M48.86-13.92a19.42 19.42 0 1 1-38.84 0 19.42 19.42 0 0 1 38.84 0"/><path fill="var(--primary)" d="M22.89-31.05a18.94 18.94 0 1 1-37.89.01 18.94 18.94 0 0 1 37.89-.01"/><path fill="var(--primary)" d="M-2.48-19.87a19.33 19.33 0 1 1-38.66 0 19.33 19.33 0 0 1 38.66 0"/><path fill="var(--primary)" d="M-10.21 10.55a19.32 19.32 0 1 1-38.65.01 19.32 19.32 0 0 1 38.65-.01"/><path fill="var(--primary)" d="M12.98 30.68a19.32 19.32 0 1 1-38.64 0 19.32 19.32 0 0 1 38.64 0"/><path fill="var(--centre)" d="M21.11-2.03a20.32 20.32 0 1 1-40.63 0 20.32 20.32 0 0 1 40.63 0"/></svg>