<svg xmlns="http://www.w3.org/2000/svg" data-attach="0,0" viewBox="-50 -50 100 100"><path fill="var(--primary)" d="M-22.07 50S-37.69 16.07.85 3.82c0 0 11.8 33.6-22.92 46.18"/><path fill="var(--primary)" d="M.85 3.82C41.3 12.92 34 45.62 34 45.62-4.99 43.82.85 3.82.85 3.82"/><path fill="var(--primary)" d="M.85 3.82s-14.94 13.71-31.91 1.13S-46.9-10.56-46.9-10.56-21.51-23.15.85 3.82"/><path fill="var(--primary)" d="M.85 3.82S-12.52-6.32-12.52-21.57-.39-50-.39-50 27.71-16.63.85 3.82"/><path fill="var(--primary)" d="M.85 3.82S7.03-7.66 23.21-13.49C39.39-19.33 46.92-10 46.92-10S39.84 8.2 25.34 9.21.85 3.82.85 3.82"/><path fill="var(--centre)" d="M-4 7.76s-7.08-1.91-5.39-5.28c1.68-3.37 6.96-.68 6.96-.68S-4.56-4.49.16-5.05s4.27 7.3 4.27 7.3 5.39-3.71 6.74 0c1.34 3.71-4.95 5.51-4.95 5.51s6.07 6.63 1.69 7.89-6.41-4.24-6.41-4.24-4.72 6.12-7.41 3.65S-4 7.75-4 7.75Z"/><path fill="var(--detail)" d="M3.73 5.37a2.88 2.88 0 1 1-5.77.01 2.88 2.88 0 0 1 5.77-.01"/></svg>