<svg xmlns="http://www.w3.org/2000/svg" data-attach="1.2,3.9" viewBox="-50 -50 100 100"><path fill="var(--primary)" d="M45.75 9.03a5.8 5.8 0 0 1 2.24 4.44c0 2.88-2.37 5.32-5.63 6.13a7 7 0 0 1 1.47 4.23 7.1 7.1 0 0 1-7.22 7.01q-.88 0-1.72-.21a7.03 7.03 0 0 1-9.45 8.5 8.44 8.44 0 0 1-12.73 6.31A8.3 8.3 0 0 1-.87 47.25 7.8 7.8 0 0 1-6.91 50c-3.64 0-6.69-2.36-7.43-5.51a6.7 6.7 0 0 1-4.22 1.52c-3.8 0-6.88-3.21-6.91-7.18q-.57.06-1.17.07c-4.41 0-7.99-2.97-7.99-6.65q0-.73.19-1.44-.26.03-.53.03c-3.92 0-7.1-2.89-7.1-6.46q.01-1.25.49-2.36c-3.05-1-5.22-3.51-5.22-6.46 0-1.92.91-3.66 2.4-4.92-2.28-1.16-3.8-3.23-3.8-5.58A6.2 6.2 0 0 1-45.41.07a7 7 0 0 1-3.42-5.89c0-2.97 2.02-5.52 4.93-6.68a8 8 0 0 1-.88-3.59 7.7 7.7 0 0 1 7.21-7.71 9 9 0 0 1-.57-3.16c0-4.57 3.34-8.28 7.46-8.28q.6 0 1.16.11a8.25 8.25 0 0 1 11.23-6.85 6.84 6.84 0 0 1 11.2-3.44A8.7 8.7 0 0 1 .5-50a8.6 8.6 0 0 1 7.46 4.37 7.4 7.4 0 0 1 5.65-2.64c3.8 0 6.92 2.87 7.43 6.6a7 7 0 0 1 2.49-.49 6.83 6.83 0 0 1 6.75 6.9l-.01.2a8 8 0 0 1 1.8-.22c4.36 0 7.88 3.71 7.88 8.3q0 .94-.19 1.82c3.46.47 6.14 3.78 6.14 7.8A8.4 8.4 0 0 1 44.72-13a6.8 6.8 0 0 1 3.27 5.96c0 1.81-.64 3.44-1.69 4.64a7.1 7.1 0 0 1 2.53 5.51 7 7 0 0 1-3.08 5.92"/><path fill="var(--detail)" d="M25.7 1.52v6.79l-15.55-.99 9.93 11.62-5.63 5.63-10.4-12.43-1.27 15.13-6.66-1.67 1.1-13.51-12.56 11.29-4.8-4.86L-6.67 6.25l-16.6-1.06.06-6.73L-6.52-.5l-10.7-12.77 6.19-4.19L-1.3-6.08 0-22l6.74 1.98-1.27 15.2 12.11-11.03 5.41 4.79L10.07.55z"/><path fill="var(--centre)" d="M13.46 3.94a12.25 12.25 0 1 1-24.5 0 12.25 12.25 0 0 1 24.5 0"/></svg>