<svg xmlns="http://www.w3.org/2000/svg" data-attach="0,50" viewBox="-50 -50 100 100"><path fill="var(--accent)" d="m.28-30.69 9.5-17.36 2.74 1.5-9.49 17.36z"/><path fill="var(--secondary)" d="m.28-30.69 9.5-17.36 2.74 1.5-9.49 17.36z"/><path fill="var(--accent)" d="M13.56-45.82a2.82 2.82 0 1 1-4.95-2.7 2.82 2.82 0 0 1 4.95 2.7"/><path fill="var(--accent)" d="m8.64-27.27 14.09-8.8 1.65 2.65-14.09 8.8z"/><path fill="var(--secondary)" d="m8.64-27.27 14.09-8.8 1.65 2.65-14.09 8.8z"/><path fill="var(--accent)" d="M24.93-32.28a2.82 2.82 0 1 1-3-4.8 2.82 2.82 0 0 1 3 4.8"/><path fill="var(--accent)" d="m8.95-17.89 15.27-4.43.87 3.01-15.27 4.42z"/><path fill="var(--secondary)" d="m8.95-17.89 15.27-4.43.87 3.01-15.27 4.42z"/><path fill="var(--accent)" d="M25.3-18.06a2.82 2.82 0 1 1-1.56-5.42 2.82 2.82 0 0 1 1.56 5.42"/><path fill="var(--secondary)" d="m8.53-6.96 18.72-2.28.38 3.11L8.91-3.86z"/><path fill="var(--accent)" d="M27.64-4.86a2.83 2.83 0 1 1-.67-5.62 2.83 2.83 0 0 1 .67 5.62"/><path fill="var(--secondary)" d="m11.39 3.26 15.92-1.27.25 3.11-15.92 1.28z"/><path fill="var(--accent)" d="M27.51 6.37a2.83 2.83 0 1 1-.44-5.64 2.83 2.83 0 0 1 .44 5.64"/><path fill="var(--secondary)" d="m11.45 11.07 13.12-.46.11 3.12-13.12.46z"/><path fill="var(--accent)" d="M24.59 14.99a2.8 2.8 0 0 1-2.92-2.72 2.83 2.83 0 1 1 2.92 2.72"/><path fill="var(--secondary)" d="m9.79 21.87 17.43-2.58.46 3.09-17.43 2.58z"/><path fill="var(--accent)" d="M27.72 23.65a2.83 2.83 0 1 1-.8-5.6 2.83 2.83 0 0 1 .8 5.6"/><path fill="var(--secondary)" d="m8.97 32.44 15.91-.47.09 3.13-15.91.47z"/><path fill="var(--accent)" d="M24.86 36.36a2.82 2.82 0 1 1-.15-5.65 2.82 2.82 0 0 1 .15 5.65"/><path fill="var(--secondary)" d="M8.72 42.49h12.93v3.12H8.72z"/><path fill="var(--accent)" d="M24.34 44.05a2.83 2.83 0 1 1-5.65-.01 2.83 2.83 0 0 1 5.65.01"/><path fill="var(--secondary)" d="M-26.52 42.49H-5.4v3.12h-21.12z"/><path fill="var(--accent)" d="M-23.56 44.05a2.82 2.82 0 1 1-5.63 0 2.82 2.82 0 0 1 5.63 0"/><path fill="var(--secondary)" d="m-23.78 36.11.09-3.12 15.73.47-.1 3.13z"/><path fill="var(--accent)" d="M-23.5 31.74a2.82 2.82 0 1 1-.19 5.65 2.82 2.82 0 0 1 .19-5.65"/><path fill="var(--secondary)" d="M-27.45 23.89h18.51v3.13h-18.51z"/><path fill="var(--accent)" d="M-24.49 25.46a2.82 2.82 0 1 1-5.63 0 2.82 2.82 0 0 1 5.63 0"/><path fill="var(--secondary)" d="m-23.74 18.5.03-3.12 15.72.16-.03 3.12z"/><path fill="var(--accent)" d="M-23.56 14.11a2.83 2.83 0 1 1-.07 5.65 2.83 2.83 0 0 1 .07-5.65"/><path fill="var(--secondary)" d="M-24.85 7.44h14.8v3.13h-14.8z"/><path fill="var(--accent)" d="M-21.88 9.01a2.83 2.83 0 0 1-5.65 0 2.83 2.83 0 1 1 5.65 0"/><path fill="var(--secondary)" d="m-23.83 1.71.19-3.12 15.72.95-.19 3.13z"/><path fill="var(--accent)" d="M-23.42-2.66a2.82 2.82 0 1 1-.35 5.63 2.82 2.82 0 0 1 .35-5.63"/><path fill="var(--secondary)" d="m-23.56-8.51.19-3.12 15.72.95-.19 3.13z"/><path fill="var(--accent)" d="M-23.16-12.88a2.82 2.82 0 1 1-.33 5.63 2.82 2.82 0 0 1 .33-5.63"/><path fill="var(--secondary)" d="m-25.12-21.71.65-3.06 18.57 3.91-.65 3.06z"/><path fill="var(--accent)" d="M-24.07-25.98a2.83 2.83 0 1 1-1.18 5.54 2.83 2.83 0 0 1 1.18-5.54"/><path fill="var(--accent)" d="m-21.03-34.76 1.43-2.78 14.91 7.69-1.44 2.78z"/><path fill="var(--secondary)" d="m-21.03-34.76 1.43-2.78 14.91 7.69-1.44 2.78z"/><path fill="var(--accent)" d="M-18.89-38.59a2.82 2.82 0 1 1-2.59 5.01 2.82 2.82 0 1 1 2.59-5.01"/><path fill="var(--accent)" d="m-9.54-45.68 2.96-1.02 5.26 15.12-2.96 1.03z"/><path fill="var(--secondary)" d="m-9.54-45.68 2.96-1.02 5.26 15.12-2.96 1.03z"/><path fill="var(--accent)" d="M-5.35-46.98a2.82 2.82 0 1 1-5.33 1.87 2.82 2.82 0 0 1 5.33-1.87"/><path fill="var(--primary)" d="M-9.26-35.27H9.56a4.43 4.43 0 0 1 4.43 4.43v78.65A2.2 2.2 0 0 1 11.8 50h-23.13a2.2 2.2 0 0 1-2.19-2.19v-78.82c0-2.35 1.9-4.26 4.26-4.26"/></svg>