<svg xmlns="http://www.w3.org/2000/svg" data-attach="0,0" viewBox="-50 -50 100 100"><path fill="var(--primary)" d="m-22.03-44.98 13.57-4.38 30.49 94.33-13.57 4.39z"/><path fill="var(--primary)" d="m2.83-50 13.98 2.83L-2.83 50l-13.99-2.83z"/><path fill="var(--primary)" d="m27.14-42.08 10.76 9.36-65.05 74.81-10.77-9.36z"/><path fill="var(--primary)" d="m44.97-22.02 4.39 13.57-94.33 30.49-4.39-13.58z"/><path fill="var(--primary)" d="m50 2.84-2.83 13.98L-50-2.83l2.83-13.98z"/><path fill="var(--primary)" d="m41.37 28.22-9.63 10.52-73.12-66.95 9.64-10.52z"/><path fill="var(--centre)" d="M14.07 0a14.07 14.07 0 1 1-28.15 0 14.07 14.07 0 0 1 28.15 0"/></svg>