<svg xmlns="http://www.w3.org/2000/svg" data-attach="0.6,1.3" viewBox="-50 -50 100 100"><path fill="var(--primary)" d="M39.76 1.33a39.13 39.13 0 1 1-78.26 0 39.13 39.13 0 0 1 78.26 0"/><path fill="var(--primary)" d="M-4.78-30.14c-.87 0-1.65-.61-1.83-1.5l-2.45-12a1.88 1.88 0 0 1 3.67-.75l2.44 12.01a1.85 1.85 0 0 1-1.83 2.24"/><path fill="var(--primary)" d="m3.23-30.14-.14-.01a1.86 1.86 0 0 1-1.73-2l.89-12a1.87 1.87 0 1 1 3.73.27l-.89 12.01a1.87 1.87 0 0 1-1.86 1.73"/><path fill="var(--primary)" d="M10.34-27.69q-.23 0-.47-.06c-1-.26-1.6-1.28-1.34-2.28l3.33-12.89a1.88 1.88 0 0 1 3.63.93l-3.34 12.9c-.21.84-.98 1.4-1.81 1.4"/><path fill="var(--primary)" d="M18.56-25.25q-.46 0-.89-.23a1.87 1.87 0 0 1-.75-2.54l6.45-11.78a1.86 1.86 0 0 1 2.54-.74c.91.49 1.24 1.63.74 2.53l-6.44 11.79a1.9 1.9 0 0 1-1.65.97"/><path fill="var(--primary)" d="M23.23-19.25q-.63 0-1.16-.4a1.87 1.87 0 0 1-.3-2.63l8.67-10.89a1.86 1.86 0 1 1 2.92 2.33l-8.67 10.89c-.37.46-.91.7-1.46.7"/><path fill="var(--primary)" d="M27.57-13.91a1.88 1.88 0 0 1-1.01-3.45l12.19-7.78a1.87 1.87 0 0 1 2.02 3.15L28.58-14.2q-.48.3-1.01.29"/><path fill="var(--primary)" d="M31.9-7.91c-.84 0-1.61-.57-1.82-1.42a1.9 1.9 0 0 1 1.37-2.27l13.57-3.33a1.87 1.87 0 0 1 .89 3.63L32.35-7.96q-.23.05-.45.05"/><path fill="var(--primary)" d="M48.13.98H35.24a1.87 1.87 0 1 1 0-3.74h12.89a1.87 1.87 0 0 1 0 3.74"/><path fill="var(--primary)" d="M45.46 12.55q-.3 0-.6-.1l-11.8-4.01a1.87 1.87 0 1 1 1.2-3.54l11.8 4a1.87 1.87 0 0 1-.6 3.65"/><path fill="var(--primary)" d="M42.57 24.33q-.46 0-.89-.23l-12.67-6.89a1.87 1.87 0 0 1-.75-2.54 1.85 1.85 0 0 1 2.53-.75l12.68 6.89c.9.49 1.24 1.63.74 2.54-.33.62-.98.98-1.64.98"/><path fill="var(--primary)" d="M33.66 33.22c-.53 0-1.05-.22-1.43-.66l-8.65-10.23a1.87 1.87 0 1 1 2.86-2.42l8.65 10.23a1.87 1.87 0 0 1-1.43 3.08"/><path fill="var(--primary)" d="M25.01 40.33c-.66 0-1.31-.36-1.65-.99l-5.11-9.55a1.9 1.9 0 0 1 .76-2.54 1.9 1.9 0 0 1 2.54.77l5.11 9.56a1.87 1.87 0 0 1-1.65 2.75"/><path fill="var(--primary)" d="M13.67 44.78c-.92 0-1.71-.67-1.85-1.61l-1.67-11.56a1.87 1.87 0 0 1 3.71-.53l1.66 11.56a1.87 1.87 0 0 1-1.85 2.14"/><path fill="var(--primary)" d="M3.22 45.89a1.87 1.87 0 0 1-1.87-1.87V33.68a1.87 1.87 0 0 1 3.74 0v10.34c0 1.03-.83 1.87-1.87 1.87"/><path fill="var(--primary)" d="M-12.12 44.78q-.35 0-.71-.14a1.9 1.9 0 0 1-1.02-2.44l3.78-9.23a1.87 1.87 0 0 1 3.46 1.42l-3.78 9.22a1.9 1.9 0 0 1-1.73 1.17"/><path fill="var(--primary)" d="M-24.79 42.33q-.57 0-1.06-.33a1.86 1.86 0 0 1-.48-2.6l8.01-11.56a1.87 1.87 0 1 1 3.07 2.13l-8 11.56c-.37.52-.95.8-1.54.8"/><path fill="var(--primary)" d="M-33.9 34.33c-.54 0-1.08-.24-1.45-.69-.66-.8-.54-1.98.26-2.63l12.23-10c.8-.66 1.98-.54 2.63.26.66.8.54 1.98-.26 2.63l-12.23 10q-.55.43-1.18.43"/><path fill="var(--primary)" d="M-40.57 25.44a1.88 1.88 0 0 1-.99-3.46l12.78-8a1.87 1.87 0 0 1 1.99 3.17l-12.79 8q-.47.3-.99.29"/><path fill="var(--primary)" d="M-46.13 13.88a1.87 1.87 0 0 1-.61-3.64l12.23-4.23c.97-.33 2.04.19 2.38 1.16.33.98-.19 2.04-1.16 2.38l-12.23 4.23q-.3.1-.61.1"/><path fill="var(--primary)" d="M-32.79-.45h-15.34a1.87 1.87 0 0 1 0-3.74h15.34a1.87 1.87 0 1 1 0 3.74"/><path fill="var(--primary)" d="M-31.23-7.91q-.23 0-.46-.06l-13.12-3.33a1.87 1.87 0 0 1-1.35-2.27 1.87 1.87 0 0 1 2.27-1.36l13.12 3.34c1 .25 1.61 1.27 1.35 2.27a1.9 1.9 0 0 1-1.81 1.41"/><path fill="var(--primary)" d="M-26.34-16.13a2 2 0 0 1-1.17-.41l-10.68-8.56a1.87 1.87 0 0 1 2.35-2.92l10.67 8.56c.8.64.93 1.82.29 2.63-.37.46-.92.7-1.46.7"/><path fill="var(--primary)" d="M-21.67-21.69c-.55 0-1.09-.24-1.46-.71l-7.56-9.44a1.86 1.86 0 0 1 .29-2.63 1.86 1.86 0 0 1 2.63.29l7.56 9.45a1.87 1.87 0 0 1-1.46 3.04"/><path fill="var(--primary)" d="M-13.23-26.42c-.65 0-1.28-.34-1.63-.95l-6-10.61a1.87 1.87 0 1 1 3.26-1.84l6 10.61a1.86 1.86 0 0 1-1.63 2.79"/><path fill="var(--primary)" d="M-4.78-30.14c-.87 0-1.65-.61-1.83-1.5l-2.45-12a1.88 1.88 0 0 1 3.67-.75l2.44 12.01a1.85 1.85 0 0 1-1.83 2.24"/></svg>