<svg xmlns="http://www.w3.org/2000/svg" data-attach="-1.1,-0.8" viewBox="-50 -50 100 100"><path fill="var(--primary)" d="M-1.12.12c20.97 17.91 26.33 36.13 17.14 44.85-9.18 8.73-29.38 6.58-28.93-10.26C-12.45 17.88-1.12.12-1.12.12"/><path fill="var(--primary)" d="M-1.12.12c25.18-11.24 43.93-8.26 47.86 3.79 3.94 12.04-6.68 29.37-21.69 21.72C10.05 17.98-1.12.12-1.12.12"/><path fill="var(--primary)" d="M-1.12.12C4.97-26.77 18.6-39.99 30.6-35.92s19.5 22.95 4.38 30.38C19.87 1.89-1.12.12-1.12.12"/><path fill="var(--primary)" d="M-1.12.12c-18.74-20.23-21.93-38.95-11.79-46.54 10.14-7.6 29.96-3.11 27.53 13.56S-1.12.12-1.12.12"/><path fill="var(--primary)" d="M-1.12.13c-26.84 6.33-44.7-.1-46.32-12.67s12.05-27.6 25.37-17.28S-1.12.12-1.12.12Z"/><path fill="var(--primary)" d="M-1.12.12C-9.25 26.47-23.85 38.61-35.5 33.64c-11.66-4.98-17.7-24.38-2.05-30.63S-1.12.12-1.12.12"/><path fill="var(--centre)" d="M13.43-.78a14.55 14.55 0 1 1-29.1 0 14.55 14.55 0 0 1 29.1 0"/></svg>