<svg xmlns="http://www.w3.org/2000/svg" data-attach="0,0" viewBox="-50 -50 100 100"><path fill="var(--primary)" d="M-18.54 48.46S-32.11 22.36-2.2-.66c0 0 16.3 28.59-16.34 49.12"/><path fill="var(--primary)" d="M-2.2-.66S-11 30.42-48.97 22.65c0 0 1.17-18.47 46.77-23.31"/><path fill="var(--primary)" d="M-2.2-.66S-30.79 17.01-50-14.26c0 0 11.14-9.86 47.8 13.6"/><path fill="var(--primary)" d="M-2.2-.66s-28.59 3.23-23.9-39c0 0 25.37 13.78 23.9 39"/><path fill="var(--primary)" d="M-2.2-.66s-15.98-23.9 11-47.8c0 0 15.68 30.2-11 47.8"/><path fill="var(--primary)" d="M-2.2-.66S8.65-27.93 41.94-26.47c0 0-6.16 30.8-44.14 25.81"/><path fill="var(--primary)" d="M-2.2-.66S20.38-10.48 50 1.98c0 0-31.23 30.64-52.2-2.64"/><path fill="var(--primary)" d="M-2.2-.66s29.5 9.94 28.46 42.95c0 0-37.4-9.08-28.46-42.95"/><path fill="var(--centre)" d="M14.26 1.01a15.1 15.1 0 1 1-30.2 0 15.1 15.1 0 0 1 30.2 0"/><path fill="var(--secondary)" d="M.33.64a1.44 1.44 0 1 1-2.89.01A1.44 1.44 0 0 1 .33.64"/><path fill="var(--secondary)" d="M-5.24.67a1.22 1.22 0 0 1-2.45 0c0-.68.55-1.22 1.23-1.22s1.22.54 1.22 1.22"/><path fill="var(--secondary)" d="M-2.55-4.15a1.34 1.34 0 1 1-2.69.01 1.34 1.34 0 0 1 2.69-.01"/><path fill="var(--secondary)" d="M3.17-4.58c0 .85-.69 1.53-1.54 1.53a1.53 1.53 0 1 1 0-3.07c.85 0 1.54.69 1.54 1.54"/><path fill="var(--secondary)" d="M5.46.35a1.14 1.14 0 1 1-2.29 0c0-.63.51-1.15 1.14-1.15.64 0 1.15.52 1.15 1.15"/><path fill="var(--secondary)" d="M5.46 4.65a1.39 1.39 0 1 1-2.78 0 1.39 1.39 0 1 1 2.78 0"/><path fill="var(--secondary)" d="M.67 6.74a1.43 1.43 0 1 1-2.84 0 1.43 1.43 0 0 1 2.84 0"/><path fill="var(--secondary)" d="M-5.24 6.44a1.13 1.13 0 1 1-2.25-.01 1.13 1.13 0 0 1 2.25.01"/><path fill="var(--secondary)" d="M-10.32 3.02a.98.98 0 1 1-1.96 0 .98.98 0 0 1 1.96 0"/><path fill="var(--secondary)" d="M-9.1-4.24c0 .69-.56 1.24-1.25 1.24s-1.24-.55-1.24-1.24a1.24 1.24 0 1 1 2.49 0"/><path fill="var(--secondary)" d="M-1.72-9.16a1.47 1.47 0 0 1-2.94 0c0-.81.66-1.46 1.47-1.46s1.47.65 1.47 1.46"/><path fill="var(--secondary)" d="M7.71-6.47a1.22 1.22 0 1 1-2.44 0 1.22 1.22 0 0 1 2.44 0"/><path fill="var(--secondary)" d="M11.28-.55a1.07 1.07 0 1 1-2.15 0 1.07 1.07 0 0 1 2.15 0"/><path fill="var(--secondary)" d="M7.71 8.54c0 .54-.44.97-.98.97a.97.97 0 1 1 0-1.95c.54 0 .98.44.98.98"/><path fill="var(--secondary)" d="M-1.11 11.78a1.28 1.28 0 1 1-2.56 0 1.28 1.28 0 0 1 2.56 0"/></svg>