<?xml version="1.0" encoding="UTF-8"?>
<svg id="Layer_2" data-name="Layer 2" xmlns="http://www.w3.org/2000/svg" viewBox="0 0 163.95 272.03">
  <defs>
    <style>
      .cls-1 {
        fill: #fe97d1;
      }

      .cls-2 {
        fill: #e35621;
      }

      .cls-3 {
        fill: #d3a703;
      }
    </style>
  </defs>
  <g id="Layer_1-2" data-name="Layer 1">
    <g>
      <g>
        <g>
          <rect class="cls-1" x="72.49" y="26.69" width="53.81" height="8.51" transform="translate(24.54 103.3) rotate(-61.32)"/>
          <rect class="cls-2" x="72.49" y="26.69" width="53.81" height="8.51" transform="translate(24.54 103.3) rotate(-61.32)"/>
        </g>
        <path class="cls-1" d="M118.87,11.37c2.04-3.72.67-8.39-3.05-10.43-3.72-2.04-8.39-.67-10.43,3.05-2.04,3.72-.67,8.39,3.05,10.43,3.72,2.04,8.39.67,10.43-3.05Z"/>
      </g>
      <g>
        <g>
          <rect class="cls-1" x="104.29" y="49.2" width="45.19" height="8.51" transform="translate(-9.05 75.34) rotate(-31.99)"/>
          <rect class="cls-2" x="104.29" y="49.2" width="45.19" height="8.51" transform="translate(-9.05 75.34) rotate(-31.99)"/>
        </g>
        <path class="cls-1" d="M149.79,48.2c3.6-2.25,4.69-6.99,2.44-10.59-2.25-3.6-6.99-4.69-10.59-2.44-3.6,2.25-4.69,6.99-2.44,10.59s6.99,4.69,10.59,2.44Z"/>
      </g>
      <g>
        <g>
          <rect class="cls-1" x="106.64" y="81.15" width="43.25" height="8.51" transform="translate(-18.7 39.08) rotate(-16.16)"/>
          <rect class="cls-2" x="106.64" y="81.15" width="43.25" height="8.51" transform="translate(-18.7 39.08) rotate(-16.16)"/>
        </g>
        <path class="cls-1" d="M150.81,86.88c4.07-1.18,6.42-5.44,5.24-9.52s-5.44-6.42-9.52-5.24c-4.07,1.18-6.42,5.44-5.24,9.52s5.44,6.42,9.52,5.24Z"/>
      </g>
      <g>
        <rect class="cls-2" x="105.51" y="113.96" width="51.29" height="8.51" transform="translate(-13.3 16.68) rotate(-6.93)"/>
        <path class="cls-1" d="M157.17,122.79c4.21-.51,7.21-4.34,6.7-8.55-.51-4.21-4.34-7.21-8.55-6.7-4.21.51-7.21,4.34-6.7,8.55.51,4.21,4.34,7.21,8.55,6.7Z"/>
      </g>
      <g>
        <rect class="cls-2" x="113.22" y="143.14" width="43.44" height="8.51" transform="translate(-11.31 11.21) rotate(-4.57)"/>
        <path class="cls-1" d="M156.82,153.35c4.23-.34,7.38-4.04,7.05-8.27s-4.04-7.38-8.27-7.05-7.38,4.04-7.05,8.27,4.04,7.38,8.27,7.05Z"/>
      </g>
      <g>
        <rect class="cls-2" x="113.28" y="165.48" width="35.72" height="8.51" transform="translate(-5.89 4.71) rotate(-2.01)"/>
        <path class="cls-1" d="M148.87,176.8c4.24-.15,7.56-3.71,7.41-7.95-.15-4.24-3.71-7.56-7.95-7.41s-7.56,3.71-7.41,7.95c.15,4.24,3.71,7.56,7.95,7.41Z"/>
      </g>
      <g>
        <rect class="cls-2" x="108.98" y="191.94" width="47.92" height="8.51" transform="translate(-27.3 21.59) rotate(-8.42)"/>
        <path class="cls-1" d="M157.39,200.34c4.2-.62,7.09-4.53,6.47-8.72-.62-4.2-4.53-7.09-8.72-6.47-4.2.62-7.1,4.53-6.47,8.72.62,4.2,4.53,7.09,8.72,6.47Z"/>
      </g>
      <g>
        <rect class="cls-2" x="106.48" y="223.63" width="43.3" height="8.51" transform="translate(-6.73 3.92) rotate(-1.71)"/>
        <path class="cls-1" d="M149.61,234.92c4.24-.13,7.58-3.67,7.45-7.91-.13-4.24-3.67-7.58-7.91-7.45-4.24.13-7.58,3.67-7.45,7.91.13,4.24,3.67,7.58,7.91,7.45Z"/>
      </g>
      <g>
        <rect class="cls-2" x="105.7" y="251.59" width="35.18" height="8.51"/>
        <circle class="cls-1" cx="140.5" cy="255.84" r="7.68"/>
      </g>
      <g>
        <rect class="cls-2" x="9.83" y="251.59" width="57.44" height="8.51"/>
        <circle class="cls-1" cx="10.21" cy="255.84" r="7.68"/>
      </g>
      <g>
        <rect class="cls-2" x="34.54" y="209.27" width="8.51" height="42.79" transform="translate(-192.94 262.46) rotate(-88.27)"/>
        <path class="cls-1" d="M18.03,222.35c-4.24-.13-7.78,3.21-7.91,7.45s3.21,7.78,7.45,7.91c4.24.13,7.78-3.21,7.91-7.45.13-4.24-3.21-7.78-7.45-7.91Z"/>
      </g>
      <g>
        <rect class="cls-2" x="7.3" y="201.01" width="50.36" height="8.51"/>
        <circle class="cls-1" cx="7.68" cy="205.27" r="7.68"/>
      </g>
      <g>
        <rect class="cls-2" x="34.54" y="160.91" width="8.51" height="42.77" transform="translate(-143.87 219.26) rotate(-89.42)"/>
        <path class="cls-1" d="M17.87,174.4c-4.24-.04-7.72,3.36-7.76,7.6-.04,4.24,3.36,7.72,7.6,7.76,4.24.04,7.72-3.36,7.76-7.6.04-4.24-3.36-7.72-7.6-7.76Z"/>
      </g>
      <g>
        <rect class="cls-2" x="14.38" y="156.25" width="40.24" height="8.51"/>
        <circle class="cls-1" cx="14.76" cy="160.51" r="7.68"/>
      </g>
      <g>
        <rect class="cls-2" x="34.54" y="116.28" width="8.51" height="42.86" transform="translate(-101.02 168.11) rotate(-86.53)"/>
        <path class="cls-1" d="M18.25,128.78c-4.23-.26-7.88,2.97-8.13,7.2-.26,4.23,2.97,7.88,7.2,8.13,4.23.26,7.88-2.97,8.13-7.2.26-4.23-2.97-7.88-7.2-8.13Z"/>
      </g>
      <g>
        <rect class="cls-2" x="35.27" y="88.49" width="8.51" height="42.86" transform="translate(-72.59 142.72) rotate(-86.53)"/>
        <path class="cls-1" d="M18.98,100.98c-4.23-.26-7.88,2.97-8.13,7.2-.26,4.23,2.97,7.88,7.2,8.13,4.23.26,7.88-2.97,8.13-7.2.26-4.23-2.97-7.88-7.2-8.13Z"/>
      </g>
      <g>
        <rect class="cls-2" x="35.52" y="52.3" width="8.51" height="51.62" transform="translate(-44.85 100.94) rotate(-78.11)"/>
        <path class="cls-1" d="M16.48,65.35c-4.15-.87-8.23,1.78-9.1,5.93s1.78,8.23,5.94,9.1c4.15.87,8.23-1.78,9.1-5.93s-1.78-8.23-5.93-9.1Z"/>
      </g>
      <g>
        <g>
          <rect class="cls-1" x="42.73" y="25.32" width="8.51" height="45.63" transform="translate(-17.34 67.81) rotate(-62.7)"/>
          <rect class="cls-2" x="42.73" y="25.32" width="8.51" height="45.63" transform="translate(-17.34 67.81) rotate(-62.7)"/>
        </g>
        <path class="cls-1" d="M30.58,31.02c-3.77-1.95-8.4-.47-10.35,3.3-1.95,3.77-.47,8.4,3.3,10.35,3.77,1.95,8.4.47,10.35-3.3,1.95-3.77.47-8.4-3.3-10.35Z"/>
      </g>
      <g>
        <g>
          <rect class="cls-1" x="62.94" y="9.16" width="8.52" height="43.56" transform="translate(-6.43 23.76) rotate(-19.16)"/>
          <rect class="cls-2" x="62.94" y="9.16" width="8.52" height="43.56" transform="translate(-6.43 23.76) rotate(-19.16)"/>
        </g>
        <path class="cls-1" d="M67.43,8.21c-1.39-4.01-5.77-6.13-9.78-4.74-4.01,1.39-6.13,5.77-4.74,9.78,1.39,4.01,5.77,6.13,9.78,4.74s6.13-5.77,4.74-9.78Z"/>
      </g>
      <g id="Bottle_Brush" data-name="Bottle Brush">
        <path class="cls-3" d="M56.77,40.06h51.21c6.65,0,12.05,5.4,12.05,12.05v213.95c0,3.29-2.67,5.97-5.97,5.97h-62.91c-3.29,0-5.97-2.67-5.97-5.97V51.65c0-6.4,5.19-11.59,11.59-11.59Z"/>
      </g>
    </g>
  </g>
</svg>