<?xml version="1.0" encoding="UTF-8"?>
<svg id="Layer_2" data-name="Layer 2" xmlns="http://www.w3.org/2000/svg" viewBox="0 0 202.37 284.44">
  <defs>
    <style>
      .cls-1 {
        fill: #d3a905;
      }

      .cls-2 {
        fill: none;
        stroke: #fe97d1;
        stroke-miterlimit: 10;
      }

      .cls-3 {
        fill: #e35621;
      }
    </style>
  </defs>
  <g id="Layer_1-2" data-name="Layer 1">
    <g>
      <path id="Bottle_Brush" data-name="Bottle Brush" class="cls-1" d="M29.61,38.3l-3.11,206.67c-.33,21.7,17.17,39.47,38.88,39.47h69.21c21.47,0,38.88-17.41,38.88-38.88V38.88c0-21.47-17.41-38.88-38.88-38.88h-66.11C47.24,0,29.93,17.05,29.61,38.3Z"/>
      <g id="Prongs">
        <g>
          <g>
            <rect class="cls-2" x="60.22" y="18.33" width="6" height="37.01" rx="3" ry="3" transform="translate(3.66 79.33) rotate(-65.74)"/>
            <rect class="cls-2" x="60.22" y="37.1" width="6" height="37.01" rx="3" ry="3" transform="translate(-13.45 90.39) rotate(-65.74)"/>
            <rect class="cls-2" x="60.03" y="55.04" width="6" height="37.01" rx="3" ry="3" transform="translate(-29.92 100.79) rotate(-65.74)"/>
            <rect class="cls-2" x="60.22" y="82.37" width="6" height="37.01" rx="3" ry="3" transform="translate(-54.73 117.06) rotate(-65.74)"/>
            <rect class="cls-2" x="59.95" y="99.71" width="6" height="37.01" rx="3" ry="3" transform="translate(-70.69 127.03) rotate(-65.74)"/>
            <rect class="cls-2" x="59.95" y="119.08" width="6" height="37.01" rx="3" ry="3" transform="translate(-88.35 138.44) rotate(-65.74)"/>
            <rect class="cls-2" x="60.22" y="146.42" width="6" height="37.01" rx="3" ry="3" transform="translate(-113.12 154.79) rotate(-65.74)"/>
            <rect class="cls-2" x="60.22" y="162.43" width="6" height="37.01" rx="3" ry="3" transform="translate(-127.72 164.22) rotate(-65.74)"/>
            <rect class="cls-2" x="60.04" y="182.35" width="6" height="37.01" rx="3" ry="3" transform="translate(-145.98 175.8) rotate(-65.74)"/>
            <rect class="cls-2" x="60.08" y="200.65" width="6" height="37.01" rx="3" ry="3" transform="translate(-162.64 186.62) rotate(-65.74)"/>
            <rect class="cls-2" x="60.22" y="226.48" width="6" height="37.01" rx="3" ry="3" transform="translate(-186.11 201.96) rotate(-65.74)"/>
            <rect class="cls-2" x="60.22" y="242.49" width="6" height="37.01" rx="3" ry="3" transform="translate(-200.7 211.39) rotate(-65.74)"/>
          </g>
          <g>
            <rect class="cls-3" x="60.22" y="18.33" width="6" height="37.01" rx="3" ry="3" transform="translate(3.66 79.33) rotate(-65.74)"/>
            <rect class="cls-3" x="60.22" y="37.1" width="6" height="37.01" rx="3" ry="3" transform="translate(-13.45 90.39) rotate(-65.74)"/>
            <rect class="cls-3" x="60.03" y="55.04" width="6" height="37.01" rx="3" ry="3" transform="translate(-29.92 100.79) rotate(-65.74)"/>
            <rect class="cls-3" x="60.22" y="82.37" width="6" height="37.01" rx="3" ry="3" transform="translate(-54.73 117.06) rotate(-65.74)"/>
            <rect class="cls-3" x="59.95" y="99.71" width="6" height="37.01" rx="3" ry="3" transform="translate(-70.69 127.03) rotate(-65.74)"/>
            <rect class="cls-3" x="59.95" y="119.08" width="6" height="37.01" rx="3" ry="3" transform="translate(-88.35 138.44) rotate(-65.74)"/>
            <rect class="cls-3" x="60.22" y="146.42" width="6" height="37.01" rx="3" ry="3" transform="translate(-113.12 154.79) rotate(-65.74)"/>
            <rect class="cls-3" x="60.22" y="162.43" width="6" height="37.01" rx="3" ry="3" transform="translate(-127.72 164.22) rotate(-65.74)"/>
            <rect class="cls-3" x="60.04" y="182.35" width="6" height="37.01" rx="3" ry="3" transform="translate(-145.98 175.8) rotate(-65.74)"/>
            <rect class="cls-3" x="60.08" y="200.65" width="6" height="37.01" rx="3" ry="3" transform="translate(-162.64 186.62) rotate(-65.74)"/>
            <rect class="cls-3" x="60.22" y="226.48" width="6" height="37.01" rx="3" ry="3" transform="translate(-186.11 201.96) rotate(-65.74)"/>
            <rect class="cls-3" x="60.22" y="242.49" width="6" height="37.01" rx="3" ry="3" transform="translate(-200.7 211.39) rotate(-65.74)"/>
          </g>
        </g>
        <g>
          <g>
            <rect class="cls-2" x="14.64" y="3.12" width="6" height="37.01" rx="3" ry="3" transform="translate(-9.32 28.82) rotate(-65.74)"/>
            <rect class="cls-2" x="14.64" y="23.17" width="6" height="37.01" rx="3" ry="3" transform="translate(-27.61 40.63) rotate(-65.74)"/>
            <rect class="cls-2" x="14.64" y="51.15" width="6" height="37.01" rx="3" ry="3" transform="translate(-53.12 57.12) rotate(-65.74)"/>
            <rect class="cls-2" x="14.64" y="67.17" width="6" height="37.01" rx="3" ry="3" transform="translate(-67.71 66.55) rotate(-65.74)"/>
            <rect class="cls-2" x="14.64" y="87.47" width="6" height="37.01" rx="3" ry="3" transform="translate(-86.23 78.51) rotate(-65.74)"/>
            <rect class="cls-2" x="14.64" y="115.2" width="6" height="37.01" rx="3" ry="3" transform="translate(-111.51 94.85) rotate(-65.74)"/>
            <rect class="cls-2" x="14.64" y="131.21" width="6" height="37.01" rx="3" ry="3" transform="translate(-126.11 104.28) rotate(-65.74)"/>
            <rect class="cls-2" x="14.64" y="150.17" width="6" height="37.01" rx="3" ry="3" transform="translate(-143.39 115.45) rotate(-65.74)"/>
            <rect class="cls-2" x="14.64" y="179.25" width="6" height="37.01" rx="3" ry="3" transform="translate(-169.9 132.58) rotate(-65.74)"/>
            <rect class="cls-2" x="14.64" y="195.26" width="6" height="37.01" rx="3" ry="3" transform="translate(-184.5 142.01) rotate(-65.74)"/>
            <rect class="cls-2" x="14.64" y="211.27" width="6" height="37.01" rx="3" ry="3" transform="translate(-199.09 151.44) rotate(-65.74)"/>
            <rect class="cls-2" x="14.64" y="232.22" width="6" height="37.01" rx="3" ry="3" transform="translate(-218.19 163.78) rotate(-65.74)"/>
          </g>
          <g>
            <rect class="cls-3" x="14.64" y="3.12" width="6" height="37.01" rx="3" ry="3" transform="translate(-9.32 28.82) rotate(-65.74)"/>
            <rect class="cls-3" x="14.64" y="23.17" width="6" height="37.01" rx="3" ry="3" transform="translate(-27.61 40.63) rotate(-65.74)"/>
            <rect class="cls-3" x="14.64" y="51.15" width="6" height="37.01" rx="3" ry="3" transform="translate(-53.12 57.12) rotate(-65.74)"/>
            <rect class="cls-3" x="14.64" y="67.17" width="6" height="37.01" rx="3" ry="3" transform="translate(-67.71 66.55) rotate(-65.74)"/>
            <rect class="cls-3" x="14.64" y="87.47" width="6" height="37.01" rx="3" ry="3" transform="translate(-86.23 78.51) rotate(-65.74)"/>
            <rect class="cls-3" x="14.64" y="115.2" width="6" height="37.01" rx="3" ry="3" transform="translate(-111.51 94.85) rotate(-65.74)"/>
            <rect class="cls-3" x="14.64" y="131.21" width="6" height="37.01" rx="3" ry="3" transform="translate(-126.11 104.28) rotate(-65.74)"/>
            <rect class="cls-3" x="14.64" y="150.17" width="6" height="37.01" rx="3" ry="3" transform="translate(-143.39 115.45) rotate(-65.74)"/>
            <rect class="cls-3" x="14.64" y="179.25" width="6" height="37.01" rx="3" ry="3" transform="translate(-169.9 132.58) rotate(-65.74)"/>
            <rect class="cls-3" x="14.64" y="195.26" width="6" height="37.01" rx="3" ry="3" transform="translate(-184.5 142.01) rotate(-65.74)"/>
            <rect class="cls-3" x="14.64" y="211.27" width="6" height="37.01" rx="3" ry="3" transform="translate(-199.09 151.44) rotate(-65.74)"/>
            <rect class="cls-3" x="14.64" y="232.22" width="6" height="37.01" rx="3" ry="3" transform="translate(-218.19 163.78) rotate(-65.74)"/>
          </g>
        </g>
        <rect class="cls-3" x="121.15" y="33.83" width="37.01" height="6" rx="3" ry="3" transform="translate(-2.8 60.64) rotate(-24.26)"/>
        <rect class="cls-3" x="121.15" y="55.16" width="37.01" height="6" rx="3" ry="3" transform="translate(-11.56 62.52) rotate(-24.26)"/>
        <rect class="cls-3" x="121.33" y="73.3" width="37.01" height="6" rx="3" ry="3" transform="translate(-19 64.2) rotate(-24.26)"/>
        <rect class="cls-3" x="121.15" y="96.47" width="37.01" height="6" rx="3" ry="3" transform="translate(-28.54 66.17) rotate(-24.26)"/>
        <rect class="cls-3" x="121.41" y="120.22" width="37.01" height="6" rx="3" ry="3" transform="translate(-38.27 68.37) rotate(-24.26)"/>
        <rect class="cls-3" x="121.41" y="139.58" width="37.01" height="6" rx="3" ry="3" transform="translate(-46.23 70.09) rotate(-24.26)"/>
        <rect class="cls-3" x="121.15" y="161.93" width="37.01" height="6" rx="3" ry="3" transform="translate(-55.43 71.95) rotate(-24.26)"/>
        <rect class="cls-3" x="121.15" y="182.94" width="37.01" height="6" rx="3" ry="3" transform="translate(-64.07 73.81) rotate(-24.26)"/>
        <rect class="cls-3" x="121.32" y="202.86" width="37.01" height="6" rx="3" ry="3" transform="translate(-72.24 75.64) rotate(-24.26)"/>
        <rect class="cls-3" x="121.29" y="216.16" width="37.01" height="6" rx="3" ry="3" transform="translate(-77.71 76.79) rotate(-24.26)"/>
        <rect class="cls-3" x="121.15" y="236.99" width="37.01" height="6" rx="3" ry="3" transform="translate(-86.28 78.58) rotate(-24.26)"/>
        <rect class="cls-3" x="121.15" y="258" width="37.01" height="6" rx="3" ry="3" transform="translate(-94.91 80.44) rotate(-24.26)"/>
        <rect class="cls-3" x="166.73" y="18.62" width="37.01" height="6" rx="3" ry="3" transform="translate(7.47 78.02) rotate(-24.26)"/>
        <rect class="cls-3" x="166.73" y="41.23" width="37.01" height="6" rx="3" ry="3" transform="translate(-1.82 80.02) rotate(-24.26)"/>
        <rect class="cls-3" x="166.73" y="66.66" width="37.01" height="6" rx="3" ry="3" transform="translate(-12.26 82.27) rotate(-24.26)"/>
        <rect class="cls-3" x="166.73" y="84.69" width="37.01" height="6" rx="3" ry="3" transform="translate(-19.67 83.86) rotate(-24.26)"/>
        <rect class="cls-3" x="166.73" y="105.85" width="37.01" height="6" rx="3" ry="3" transform="translate(-28.36 85.73) rotate(-24.26)"/>
        <rect class="cls-3" x="166.73" y="130.71" width="37.01" height="6" rx="3" ry="3" transform="translate(-38.58 87.92) rotate(-24.26)"/>
        <rect class="cls-3" x="166.73" y="148.96" width="37.01" height="6" rx="3" ry="3" transform="translate(-46.08 89.53) rotate(-24.26)"/>
        <rect class="cls-3" x="166.73" y="168.23" width="37.01" height="6" rx="3" ry="3" transform="translate(-54 91.24) rotate(-24.26)"/>
        <rect class="cls-3" x="166.73" y="192.31" width="37.01" height="6" rx="3" ry="3" transform="translate(-63.89 93.36) rotate(-24.26)"/>
        <rect class="cls-3" x="166.73" y="210.77" width="37.01" height="6" rx="3" ry="3" transform="translate(-71.48 94.99) rotate(-24.26)"/>
        <rect class="cls-3" x="166.73" y="226.78" width="37.01" height="6" rx="3" ry="3" transform="translate(-78.06 96.41) rotate(-24.26)"/>
        <rect class="cls-3" x="166.73" y="242.72" width="37.01" height="6" rx="3" ry="3" transform="translate(-84.61 97.82) rotate(-24.26)"/>
      </g>
    </g>
  </g>
</svg>