<?xml version="1.0" encoding="UTF-8"?>
<svg id="Layer_2" data-name="Layer 2" xmlns="http://www.w3.org/2000/svg" viewBox="0 0 261.15 278.31">
  <defs>
    <style>
      .cls-1 {
        fill: #fff;
      }

      .cls-2 {
        fill: #fe97d1;
      }

      .cls-3 {
        fill: #e35621;
      }
    </style>
  </defs>
  <g id="Layer_1-2" data-name="Layer 1">
    <g>
      <path id="Petal" class="cls-3" d="M69.15,278.31s-43.47-94.44,63.79-128.52c0,0,32.83,93.5-63.79,128.52Z"/>
      <path id="Petal-2" data-name="Petal" class="cls-3" d="M132.94,149.79s-16.26,111.32,92.25,116.33c0,0,20.33-91-92.25-116.33Z"/>
      <path id="Petal-3" data-name="Petal" class="cls-3" d="M132.94,149.79s-41.59,38.15-88.81,3.13C-3.08,117.89.04,109.76.04,109.76c0,0,70.67-35.02,132.9,40.03Z"/>
      <path id="Petal-4" data-name="Petal" class="cls-3" d="M132.94,149.79s-37.21-28.22-37.21-70.67S129.5,0,129.5,0c0,0,78.18,92.87,3.44,149.79Z"/>
      <path id="Petal-5" data-name="Petal" class="cls-3" d="M132.94,149.79s17.2-31.96,62.23-48.19c45.03-16.23,65.98,9.73,65.98,9.73,0,0-19.7,50.66-60.04,53.47-40.34,2.81-68.17-15.01-68.17-15.01Z"/>
      <path id="innter" class="cls-2" d="M119.44,160.73s-12.82,13.45-5.32,20.33,20.64-10.16,20.64-10.16c0,0,5.63,15.31,17.82,11.8s-4.69-21.96-4.69-21.96c0,0,17.51-5,13.76-15.32-3.75-10.32-18.76,0-18.76,0,0,0,1.25-21.89-11.88-20.33s-7.19,19.08-7.19,19.08c0,0-14.7-7.5-19.39,1.88s15.01,14.7,15.01,14.7Z"/>
      <circle id="innter-2" data-name="innter" class="cls-1" cx="132.94" cy="154.11" r="8.02"/>
    </g>
  </g>
</svg>