<?xml version="1.0" encoding="UTF-8"?>
<svg id="Layer_2" data-name="Layer 2" xmlns="http://www.w3.org/2000/svg" viewBox="0 0 324.12 314.14">
  <defs>
    <style>
      .cls-1 {
        fill: #d3a905;
      }

      .cls-2 {
        fill: #3076d9;
      }

      .cls-3 {
        fill: #adaaed;
      }
    </style>
  </defs>
  <g id="Layer_1-2" data-name="Layer 1">
    <g>
      <path id="Petal" class="cls-3" d="M101.97,314.14s-43.99-84.59,52.96-159.21c0,0,52.82,92.67-52.96,159.21Z"/>
      <path id="Petal-2" data-name="Petal" class="cls-3" d="M154.93,154.93S126.42,255.68,3.33,230.49c0,0,3.8-59.88,151.6-75.56Z"/>
      <path id="Petal-3" data-name="Petal" class="cls-3" d="M154.93,154.93S62.26,212.19,0,110.85c0,0,36.12-31.96,154.93,44.08Z"/>
      <path id="Petal-4" data-name="Petal" class="cls-3" d="M154.93,154.93s-92.67,10.46-77.47-126.42c0,0,82.22,44.67,77.47,126.42Z"/>
      <path id="Petal-5" data-name="Petal" class="cls-3" d="M154.93,154.93S103.13,77.47,190.57,0c0,0,50.85,97.9-35.64,154.93Z"/>
      <path id="Petal-6" data-name="Petal" class="cls-3" d="M154.93,154.93s35.17-88.4,143.05-83.64c0,0-19.96,99.8-143.05,83.64Z"/>
      <path id="Petal-7" data-name="Petal" class="cls-3" d="M154.93,154.93s73.19-31.84,169.19,8.55c0,0-101.23,99.33-169.19-8.55Z"/>
      <path id="Petal-8" data-name="Petal" class="cls-3" d="M154.93,154.93s95.63,32.23,92.25,139.21c0,0-121.24-29.42-92.25-139.21Z"/>
      <circle id="Seed_Head" data-name="Seed Head" class="cls-2" cx="159.33" cy="160.34" r="48.95"/>
      <circle id="Seeds" class="cls-1" cx="158.46" cy="159.16" r="4.67"/>
      <circle id="Seeds-2" data-name="Seeds" class="cls-1" cx="141.11" cy="159.24" r="3.96"/>
      <circle id="Seeds-3" data-name="Seeds" class="cls-1" cx="149.43" cy="143.63" r="4.36"/>
      <circle id="Seeds-4" data-name="Seeds" class="cls-1" cx="167.33" cy="142.21" r="4.99"/>
      <circle id="Seeds-5" data-name="Seeds" class="cls-1" cx="176.04" cy="158.21" r="3.72"/>
      <circle id="Seeds-6" data-name="Seeds" class="cls-1" cx="175.25" cy="172.15" r="4.51"/>
      <circle id="Seeds-7" data-name="Seeds" class="cls-1" cx="159.61" cy="178.92" r="4.63"/>
      <circle id="Seeds-8" data-name="Seeds" class="cls-1" cx="141.43" cy="177.93" r="3.64"/>
      <circle id="Seeds-9" data-name="Seeds" class="cls-1" cx="125.43" cy="166.85" r="3.17"/>
      <circle id="Seeds-10" data-name="Seeds" class="cls-1" cx="128.52" cy="143.32" r="4.04"/>
      <circle id="Seeds-11" data-name="Seeds" class="cls-1" cx="151.72" cy="127.39" r="4.75"/>
      <circle id="Seeds-12" data-name="Seeds" class="cls-1" cx="183.09" cy="136.1" r="3.96"/>
      <circle id="Seeds-13" data-name="Seeds" class="cls-1" cx="195.13" cy="155.28" r="3.49"/>
      <circle id="Seeds-14" data-name="Seeds" class="cls-1" cx="183.88" cy="184.74" r="3.17"/>
      <circle id="Seeds-15" data-name="Seeds" class="cls-1" cx="154.3" cy="195.24" r="4.16"/>
    </g>
  </g>
</svg>