<?xml version="1.0" encoding="UTF-8"?>
<svg id="Layer_2" data-name="Layer 2" xmlns="http://www.w3.org/2000/svg" viewBox="0 0 210.45 221.21">
  <defs>
    <style>
      .cls-1 {
        fill: #d3a905;
      }

      .cls-2 {
        fill: #e35621;
      }
    </style>
  </defs>
  <g id="Layer_1-2" data-name="Layer 1">
    <g>
      <path id="Petal" class="cls-2" d="M102.74,110.87s-25.06,39.28-26.07,76.52,43.68,41.99,64,22.69,8.47-59.59-37.92-99.21Z"/>
      <path id="Petal-2" data-name="Petal" class="cls-2" d="M102.74,110.87s24.71,39.5,57.9,56.42c33.2,16.92,56.68-21.41,47.98-48.05-8.7-26.64-50.18-33.24-105.88-8.37Z"/>
      <path id="Petal-3" data-name="Petal" class="cls-2" d="M102.74,110.87s46.43,3.9,79.87-12.53c33.44-16.43,16.84-58.2-9.7-67.2-26.54-9-56.69,20.24-70.17,79.73Z"/>
      <path id="Petal-4" data-name="Petal" class="cls-2" d="M102.74,110.87s29.47-36.08,34.83-72.96C142.93,1.04,99.09-8.89,76.66,7.91c-22.43,16.8-15.36,58.2,26.08,102.96Z"/>
      <path id="Petal-5" data-name="Petal" class="cls-2" d="M102.74,110.87s-16.89-43.42-46.34-66.24C26.94,21.81-3.28,55.07.29,82.87c3.57,27.79,43.09,42.03,102.45,28.01Z"/>
      <path class="cls-2" d="M102.74,110.87s-45.99-7.44-80.59,6.39c-34.6,13.83-21.24,56.74,4.54,67.75,25.77,11,58.07-15.85,76.06-74.14Z"/>
      <circle id="Seed" class="cls-1" cx="102.74" cy="108.87" r="32.19"/>
    </g>
  </g>
</svg>