<?xml version="1.0" encoding="UTF-8"?>
<svg id="Layer_2" data-name="Layer 2" xmlns="http://www.w3.org/2000/svg" viewBox="0 0 238.06 243.78">
  <defs>
    <style>
      .cls-1 {
        fill: #3076d9;
      }

      .cls-2 {
        fill: #fff;
      }

      .cls-3 {
        fill: #e35621;
      }
    </style>
  </defs>
  <g id="Layer_1-2" data-name="Layer 1">
    <g>
      <path class="cls-1" d="M230.56,143.91c4.48-2.92,7.5-8.28,7.5-14.42,0-5.5-2.42-10.37-6.15-13.43,2.55-2.94,4.12-6.92,4.12-11.31,0-6.31-3.23-11.78-7.97-14.53,1.81-3.04,2.87-6.7,2.87-10.64,0-9.81-6.54-17.88-14.98-19.01.31-1.43.48-2.92.48-4.45,0-11.17-8.6-20.23-19.21-20.23-1.51,0-2.98.2-4.39.55,0-.17.02-.33.02-.49,0-9.3-7.37-16.83-16.46-16.83-2.15,0-4.2.43-6.08,1.2-1.22-9.09-8.85-16.09-18.09-16.09-5.51,0-10.44,2.5-13.79,6.43-3.62-6.36-10.4-10.65-18.19-10.65s-14.94,4.52-18.49,11.16c-2.95-2.65-6.85-4.27-11.13-4.27-7.82,0-14.37,5.39-16.18,12.65-2.28-.9-4.76-1.41-7.35-1.41-10.44,0-19.02,7.95-20.02,18.12-.92-.16-1.86-.27-2.82-.27-10.05,0-18.19,9.04-18.19,20.18,0,2.73.49,5.33,1.38,7.7-9.79.55-17.57,8.74-17.57,18.81,0,3.16.78,6.13,2.13,8.75-7.08,2.83-12,9.04-12,16.27,0,5.9,3.29,11.11,8.34,14.38-4.17,2.96-6.81,7.3-6.81,12.15,0,5.74,3.7,10.77,9.25,13.62-3.61,3.06-5.84,7.29-5.84,11.97,0,7.2,5.29,13.33,12.73,15.76-.77,1.78-1.21,3.72-1.21,5.75,0,8.7,7.76,15.75,17.32,15.75.44,0,.87-.03,1.3-.06-.3,1.13-.47,2.3-.47,3.5,0,8.96,8.72,16.22,19.48,16.22.97,0,1.92-.08,2.85-.19.07,9.68,7.58,17.51,16.84,17.51,3.88,0,7.45-1.39,10.3-3.7,1.8,7.67,9.22,13.43,18.11,13.43,6.01,0,11.34-2.64,14.73-6.71,3.71,4.11,9.06,6.71,15.04,6.71,7.89,0,14.72-4.52,18.06-11.11,3.09,1.86,6.71,2.96,10.58,2.96,10.61,0,19.34-8.03,20.45-18.35,2.03.85,4.26,1.32,6.61,1.32,9.47,0,17.15-7.68,17.15-17.15,0-1.7-.26-3.33-.72-4.88,1.35.32,2.75.51,4.2.51,9.71,0,17.58-7.66,17.58-17.1,0-3.88-1.34-7.44-3.58-10.31,7.96-1.98,13.73-7.92,13.73-14.94,0-4.21-2.09-8.02-5.47-10.83Z"/>
      <polygon class="cls-2" points="181.68 125.61 143.59 123.23 175.08 94.94 161.88 83.26 132.36 110.16 135.46 73.1 119.03 68.28 115.86 107.09 92.14 79.33 77.06 89.54 103.13 120.69 62.45 118.15 62.3 134.56 102.77 137.14 69.94 167.06 81.63 178.89 112.25 151.38 109.56 184.3 125.81 188.39 128.9 151.49 154.26 181.79 167.97 168.08 143.77 139.75 181.68 142.17 181.68 125.61"/>
      <circle class="cls-3" cx="121.99" cy="131.51" r="29.85"/>
    </g>
  </g>
</svg>