<?xml version="1.0" encoding="UTF-8"?>
<svg id="Layer_2" data-name="Layer 2" xmlns="http://www.w3.org/2000/svg" viewBox="0 0 290.32 266.44">
  <defs>
    <style>
      .cls-1 {
        fill: #d3a905;
      }
    </style>
  </defs>
  <g id="Layer_1-2" data-name="Layer 1">
    <g>
      <circle class="cls-1" cx="146.99" cy="137.09" r="113.59"/>
      <path class="cls-1" d="M131.28,45.72c-2.53,0-4.79-1.77-5.32-4.35l-7.1-34.85c-.6-2.94,1.3-5.81,4.24-6.41,2.95-.6,5.81,1.3,6.41,4.24l7.1,34.85c.6,2.94-1.3,5.81-4.24,6.41-.37.07-.73.11-1.09.11Z"/>
      <path class="cls-1" d="M154.53,45.72c-.14,0-.27,0-.41-.02-2.99-.22-5.24-2.82-5.02-5.82l2.58-34.85c.22-2.99,2.86-5.23,5.82-5.02,2.99.22,5.24,2.83,5.02,5.82l-2.58,34.85c-.21,2.86-2.59,5.03-5.41,5.03Z"/>
      <path class="cls-1" d="M175.18,52.82c-.45,0-.91-.06-1.36-.17-2.9-.75-4.65-3.72-3.9-6.62l9.68-37.43c.75-2.9,3.71-4.65,6.62-3.9,2.9.75,4.65,3.71,3.9,6.62l-9.68,37.43c-.63,2.45-2.84,4.07-5.26,4.07Z"/>
      <path class="cls-1" d="M199.05,59.92c-.88,0-1.77-.21-2.6-.67-2.63-1.44-3.6-4.74-2.16-7.37l18.72-34.21c1.44-2.63,4.74-3.59,7.37-2.16,2.63,1.44,3.6,4.74,2.16,7.37l-18.72,34.21c-.99,1.8-2.85,2.82-4.77,2.82Z"/>
      <path class="cls-1" d="M212.6,77.34c-1.19,0-2.38-.39-3.38-1.18-2.35-1.87-2.74-5.28-.87-7.63l25.17-31.62c1.87-2.35,5.28-2.73,7.63-.87s2.74,5.28.87,7.63l-25.17,31.62c-1.07,1.35-2.66,2.05-4.25,2.05Z"/>
      <path class="cls-1" d="M225.2,92.83c-1.79,0-3.55-.89-4.58-2.51-1.62-2.53-.87-5.89,1.66-7.5l35.39-22.59c2.53-1.61,5.89-.87,7.5,1.66,1.62,2.53.87,5.89-1.66,7.5l-35.39,22.59c-.9.58-1.92.85-2.92.85Z"/>
      <path class="cls-1" d="M237.77,110.26c-2.44,0-4.66-1.66-5.27-4.14-.72-2.91,1.07-5.86,3.98-6.57l39.37-9.68c2.91-.7,5.85,1.06,6.57,3.98.72,2.91-1.07,5.86-3.98,6.57l-39.37,9.68c-.43.11-.87.16-1.3.16Z"/>
      <path class="cls-1" d="M284.89,136.07h-37.43c-3,0-5.43-2.43-5.43-5.43s2.43-5.43,5.43-5.43h37.43c3,0,5.43,2.43,5.43,5.43s-2.43,5.43-5.43,5.43Z"/>
      <path class="cls-1" d="M277.15,169.64c-.58,0-1.17-.1-1.75-.29l-34.26-11.62c-2.84-.97-4.36-4.05-3.4-6.89.97-2.84,4.05-4.35,6.89-3.4l34.26,11.62c2.84.97,4.36,4.05,3.4,6.89-.77,2.26-2.88,3.69-5.15,3.69Z"/>
      <path class="cls-1" d="M268.75,203.84c-.88,0-1.77-.21-2.59-.66l-36.79-20.01c-2.64-1.43-3.61-4.73-2.18-7.37,1.43-2.63,4.73-3.61,7.37-2.18l36.79,20.01c2.63,1.43,3.61,4.73,2.17,7.37-.98,1.81-2.85,2.84-4.78,2.84Z"/>
      <path class="cls-1" d="M242.89,229.66c-1.54,0-3.07-.65-4.15-1.92l-25.12-29.69c-1.94-2.29-1.65-5.72.64-7.66,2.29-1.94,5.72-1.65,7.66.64l25.12,29.69c1.94,2.29,1.65,5.72-.64,7.66-1.02.86-2.27,1.28-3.51,1.28Z"/>
      <path class="cls-1" d="M217.78,250.31c-1.94,0-3.82-1.04-4.8-2.87l-14.85-27.75c-1.41-2.64-.42-5.94,2.23-7.35,2.65-1.41,5.94-.42,7.35,2.23l14.85,27.75c1.41,2.64.42,5.94-2.23,7.35-.82.43-1.69.64-2.56.64Z"/>
      <path class="cls-1" d="M184.85,263.22c-2.66,0-4.98-1.95-5.37-4.66l-4.84-33.56c-.43-2.97,1.63-5.72,4.6-6.15,2.96-.41,5.72,1.63,6.15,4.6l4.84,33.56c.43,2.97-1.63,5.72-4.6,6.15-.26.04-.52.06-.78.06Z"/>
      <path class="cls-1" d="M154.52,266.44c-3,0-5.43-2.43-5.43-5.43v-30.01c0-3,2.43-5.43,5.43-5.43s5.43,2.43,5.43,5.43v30.01c0,3-2.43,5.43-5.43,5.43Z"/>
      <path class="cls-1" d="M109.98,263.22c-.68,0-1.38-.13-2.06-.41-2.78-1.14-4.11-4.31-2.97-7.08l10.97-26.78c1.14-2.77,4.3-4.11,7.08-2.97,2.78,1.14,4.11,4.31,2.97,7.08l-10.97,26.78c-.86,2.1-2.89,3.38-5.03,3.38Z"/>
      <path class="cls-1" d="M73.19,256.12c-1.07,0-2.14-.31-3.09-.97-2.47-1.71-3.08-5.09-1.37-7.56l23.24-33.56c1.71-2.46,5.08-3.08,7.56-1.37,2.47,1.71,3.08,5.09,1.37,7.56l-23.24,33.56c-1.06,1.52-2.75,2.34-4.47,2.34Z"/>
      <path class="cls-1" d="M46.74,232.88c-1.57,0-3.13-.68-4.21-1.99-1.9-2.32-1.56-5.75.76-7.64l35.5-29.04c2.33-1.9,5.74-1.56,7.64.76,1.9,2.32,1.56,5.75-.76,7.64l-35.5,29.04c-1.01.82-2.23,1.23-3.44,1.23Z"/>
      <path class="cls-1" d="M27.38,207.07c-1.81,0-3.58-.9-4.61-2.55-1.59-2.54-.82-5.9,1.72-7.49l37.11-23.23c2.55-1.59,5.89-.82,7.49,1.72,1.59,2.54.82,5.9-1.72,7.49l-37.11,23.23c-.9.56-1.89.83-2.88.83Z"/>
      <path class="cls-1" d="M11.24,173.51c-2.25,0-4.36-1.41-5.14-3.66-.98-2.84.53-5.93,3.36-6.91l35.5-12.26c2.84-.97,5.93.53,6.91,3.36.98,2.84-.53,5.93-3.36,6.91l-35.5,12.26c-.59.2-1.19.3-1.77.3Z"/>
      <path class="cls-1" d="M49.97,131.9H5.43c-3,0-5.43-2.43-5.43-5.43s2.43-5.43,5.43-5.43h44.53c3,0,5.43,2.43,5.43,5.43s-2.43,5.43-5.43,5.43Z"/>
      <path class="cls-1" d="M54.49,110.26c-.44,0-.89-.05-1.34-.17l-38.08-9.68c-2.91-.74-4.67-3.69-3.93-6.6.74-2.91,3.69-4.66,6.6-3.93l38.08,9.68c2.91.74,4.67,3.69,3.93,6.6-.63,2.46-2.84,4.09-5.26,4.09Z"/>
      <path class="cls-1" d="M68.68,86.38c-1.19,0-2.39-.39-3.4-1.19l-30.98-24.85c-2.34-1.88-2.72-5.3-.84-7.64,1.88-2.34,5.3-2.71,7.64-.84l30.98,24.85c2.34,1.88,2.72,5.3.84,7.64-1.07,1.34-2.65,2.03-4.24,2.03Z"/>
      <path class="cls-1" d="M82.24,70.24c-1.59,0-3.17-.7-4.24-2.04l-21.94-27.43c-1.88-2.34-1.5-5.76.85-7.63,2.33-1.87,5.76-1.5,7.63.85l21.94,27.43c1.88,2.34,1.5,5.76-.85,7.63-1,.8-2.2,1.19-3.39,1.19Z"/>
      <path class="cls-1" d="M106.76,56.53c-1.89,0-3.73-.99-4.73-2.76l-17.42-30.82c-1.47-2.61-.56-5.93,2.06-7.4,2.61-1.48,5.93-.55,7.4,2.06l17.42,30.82c1.47,2.61.56,5.93-2.06,7.4-.84.48-1.76.7-2.67.7Z"/>
      <path class="cls-1" d="M131.28,45.72c-2.53,0-4.79-1.77-5.32-4.35l-7.1-34.85c-.6-2.94,1.3-5.81,4.24-6.41,2.95-.6,5.81,1.3,6.41,4.24l7.1,34.85c.6,2.94-1.3,5.81-4.24,6.41-.37.07-.73.11-1.09.11Z"/>
    </g>
  </g>
</svg>